<?xml version="1.0" encoding="utf-8"?>
<!-- Generator: Adobe Illustrator 26.2.1, SVG Export Plug-In . SVG Version: 6.00 Build 0)  -->
<svg version="1.1" id="Camada_1" xmlns="http://www.w3.org/2000/svg" xmlns:xlink="http://www.w3.org/1999/xlink" x="0px" y="0px"
	 viewBox="0 0 2689.5 628.2" style="enable-background:new 0 0 2689.5 628.2;" xml:space="preserve">
<style type="text/css">
	.st0{fill:#FE2784;}
</style>
<g>
	<g>
		<path d="M419.6,178.7H501l63.3,171.7l63.3-171.7h81.3L591.3,458.9h-54.2L419.6,178.7z"/>
		<path d="M983.9,178.7v280.2h-72.3v-29.9c-22.6,26-52,39-85.9,39c-77.4,0-140.1-66.6-140.1-149.1s62.7-149.1,140.1-149.1
			c33.9,0,63.3,13,85.9,39v-29.9H983.9z M911.6,318.8c0-42.4-34.5-76.8-76.8-76.8s-76.8,34.5-76.8,76.8s34.5,76.8,76.8,76.8
			S911.6,361.1,911.6,318.8z"/>
		<path d="M1226.7,370.2l29.9,64.4c-22.6,22-61.6,33.3-97.1,33.3c-98.3,0-155.9-66.6-155.9-149.1s58.7-149.1,155.9-149.1
			c35.6,0,71.2,10.2,97.1,33.3l-29.9,65c-15.8-15.8-39.5-26-65-26c-53.1,0-85.9,34.5-85.9,76.8s32.2,76.8,85.9,76.8
			C1187.2,395.6,1210.9,386,1226.7,370.2z"/>
		<path d="M1545.3,178.7v280.2H1473v-29.9c-22.6,26-52,39-85.9,39c-77.4,0-140.1-66.6-140.1-149.1s62.7-149.1,140.1-149.1
			c33.9,0,63.3,13,85.9,39v-29.9H1545.3z M1473,318.8c0-42.4-34.5-76.8-76.8-76.8s-76.8,34.5-76.8,76.8s34.5,76.8,76.8,76.8
			S1473,361.1,1473,318.8z"/>
		<path d="M1838.4,296.2v162.7h-72.3V305.2c0-43.5-16.9-63.3-54.2-63.3c-32.8,0-63.3,21.5-63.3,72.3v144.6h-72.3V178.7h72.3v27.1
			c19.2-22.6,42.4-36.1,84.7-36.1C1797.8,169.7,1838.4,211.5,1838.4,296.2z"/>
		<path class="st0" d="M2111.2,368.5c0,57-45.2,99.4-123.1,99.4c-66.6,0-115.8-28.2-129.9-40.7l23.7-67.8
			c24.3,22.6,65.5,39,99.4,39.5c33.3,0.6,57.6-6.8,57.6-24.3c0-12.4-12.4-16.9-49.7-23.2c-104.5-16.9-122-50.3-122-96
			c0-45.2,49.1-85.9,122.6-85.9c27.7,0,68.3,6.2,109,27.1l-20.3,65.5c-14.1-10.2-51.4-23.2-88.7-23.7c-29.4-0.6-50.3,5.1-50.3,16.9
			c0,16.9,29.4,19.8,59.3,24.9C2093.7,295.6,2111.2,332.9,2111.2,368.5z"/>
		<path class="st0" d="M2402.1,178.7l-180.7,424.7H2140l72.3-164.9l-108.4-259.8h81.3l67.8,164.9l67.8-164.9H2402.1z"/>
	</g>
	<g>
		<path class="st0" d="M255.5,169.5v81.3l-120,63.3l120,63.3v81.3L27,341.2V287L255.5,169.5z"/>
	</g>
	<g>
		<g>
			<path class="st0" d="M2662.5,287v54.2l-228.4,117.5v-81.3l120-63.3l-120-63.3v-81.3L2662.5,287z"/>
		</g>
	</g>
	<g>
		<g>
			<polygon class="st0" points="254.4,458.9 326.7,458.9 428.8,274.6 397.7,200.3 			"/>
		</g>
	</g>
</g>
</svg>
